<svg width="36" height="36" viewBox="0 0 36 36" fill="none" xmlns="http://www.w3.org/2000/svg">
<path d="M31.4615 10.2647H7.46155C6.90926 10.2647 6.46155 10.7256 6.46155 11.2941V27.7647C6.46155 28.3332 6.90926 28.7941 7.46155 28.7941H31.4615C32.0138 28.7941 32.4615 28.3332 32.4615 27.7647V11.2941C32.4615 10.7256 32.0138 10.2647 31.4615 10.2647Z" stroke="#2869FF" stroke-width="2" stroke-linecap="round" stroke-linejoin="round"/>
<path d="M25 10.6552V8.84483V3C25 1.89543 24.1046 1 23 1H3C1.89543 1 1 1.89543 1 3V16.5C1 17.6046 1.89543 18.5 3 18.5H6.02325" stroke="#2869FF" stroke-width="2"/>
<path d="M1.5 6.14706H24.5" stroke="#2869FF" stroke-width="2"/>
<mask id="path-4-inside-1_25_28" fill="white">
<path d="M17.4769 15.5385C15.222 15.5385 13.3846 17.3517 13.3846 19.5769C13.3846 21.8021 15.222 23.6154 17.4769 23.6154C18.4867 23.6154 19.4107 23.2495 20.1255 22.6481C20.7703 23.1203 21.566 23.4028 22.4308 23.4028C24.5721 23.4028 26.3077 21.6901 26.3077 19.5769C26.3077 17.4637 24.5721 15.751 22.4308 15.751C21.566 15.751 20.7703 16.0335 20.1255 16.5057C19.4107 15.9043 18.4867 15.5385 17.4769 15.5385ZM17.4769 16.3887C18.2411 16.3887 18.9407 16.6496 19.4928 17.0844C18.9087 17.7542 18.5538 18.6239 18.5538 19.5769C18.5538 20.53 18.9087 21.3996 19.4928 22.0694C18.9407 22.5043 18.2411 22.7652 17.4769 22.7652C15.6877 22.7652 14.2462 21.3426 14.2462 19.5769C14.2462 17.8113 15.6877 16.3887 17.4769 16.3887Z"/>
</mask>
<path d="M20.1255 22.6481L20.7163 21.8413L20.0827 21.3773L19.4817 21.8829L20.1255 22.6481ZM20.1255 16.5057L19.4817 17.2709L20.0827 17.7766L20.7163 17.3125L20.1255 16.5057ZM19.4928 17.0844L20.2465 17.7417L20.9374 16.9494L20.1116 16.2989L19.4928 17.0844ZM19.4928 22.0694L20.1116 22.855L20.9374 22.2045L20.2465 21.4122L19.4928 22.0694ZM17.4769 14.5385C14.6823 14.5385 12.3846 16.787 12.3846 19.5769H14.3846C14.3846 17.9164 15.7618 16.5385 17.4769 16.5385V14.5385ZM12.3846 19.5769C12.3846 22.3669 14.6823 24.6154 17.4769 24.6154V22.6154C15.7618 22.6154 14.3846 21.2374 14.3846 19.5769H12.3846ZM17.4769 24.6154C18.7327 24.6154 19.8824 24.1595 20.7693 23.4133L19.4817 21.8829C18.939 22.3396 18.2407 22.6154 17.4769 22.6154V24.6154ZM19.5346 23.4549C20.3432 24.047 21.3442 24.4028 22.4308 24.4028V22.4028C21.7878 22.4028 21.1974 22.1936 20.7163 21.8413L19.5346 23.4549ZM22.4308 24.4028C25.1119 24.4028 27.3077 22.2548 27.3077 19.5769H25.3077C25.3077 21.1254 24.0324 22.4028 22.4308 22.4028V24.4028ZM27.3077 19.5769C27.3077 16.899 25.1119 14.751 22.4308 14.751V16.751C24.0324 16.751 25.3077 18.0285 25.3077 19.5769H27.3077ZM22.4308 14.751C21.3442 14.751 20.3432 15.1068 19.5346 15.6989L20.7163 17.3125C21.1974 16.9602 21.7878 16.751 22.4308 16.751V14.751ZM20.7693 15.7405C19.8824 14.9943 18.7327 14.5385 17.4769 14.5385V16.5385C18.2407 16.5385 18.939 16.8143 19.4817 17.2709L20.7693 15.7405ZM17.4769 17.3887C18.0094 17.3887 18.4925 17.5695 18.874 17.87L20.1116 16.2989C19.3888 15.7296 18.4727 15.3887 17.4769 15.3887V17.3887ZM18.7391 16.4272C18.0045 17.2696 17.5538 18.3699 17.5538 19.5769H19.5538C19.5538 18.8779 19.8129 18.2388 20.2465 17.7417L18.7391 16.4272ZM17.5538 19.5769C17.5538 20.784 18.0045 21.8843 18.7391 22.7266L20.2465 21.4122C19.8129 20.915 19.5538 20.276 19.5538 19.5769H17.5538ZM18.874 21.2838C18.4925 21.5843 18.0094 21.7652 17.4769 21.7652V23.7652C18.4727 23.7652 19.3888 23.4243 20.1116 22.855L18.874 21.2838ZM17.4769 21.7652C16.2275 21.7652 15.2462 20.7778 15.2462 19.5769H13.2462C13.2462 21.9073 15.148 23.7652 17.4769 23.7652V21.7652ZM15.2462 19.5769C15.2462 18.376 16.2275 17.3887 17.4769 17.3887V15.3887C15.148 15.3887 13.2462 17.2466 13.2462 19.5769H15.2462Z" fill="#2869FF" mask="url(#path-4-inside-1_25_28)"/>
<path d="M1.5 9.23529H24.5" stroke="#2869FF" stroke-width="2"/>
</svg>
