<svg width="66" height="66" viewBox="0 0 66 66" fill="none" xmlns="http://www.w3.org/2000/svg">
<path d="M57.5714 18.2059H13C11.9743 18.2059 11.1429 19.0618 11.1429 20.1176V50.7059C11.1429 51.7617 11.9743 52.6176 13 52.6176H57.5714C58.5971 52.6176 59.4286 51.7617 59.4286 50.7059V20.1176C59.4286 19.0618 58.5971 18.2059 57.5714 18.2059Z" stroke="white" stroke-width="2" stroke-linecap="round" stroke-linejoin="round"/>
<path d="M45.5714 18.931V15.569V3C45.5714 1.89543 44.676 1 43.5714 1H3C1.89543 1 1 1.89543 1 3V31.5C1 32.6046 1.89543 33.5 3 33.5H10.3289" stroke="white" stroke-width="2"/>
<path d="M1.92856 10.5588H44.6428" stroke="white" stroke-width="2"/>
<mask id="path-4-inside-1_25_28" fill="white">
<path d="M31.6 28C27.4124 28 24 31.3675 24 35.5C24 39.6325 27.4124 43 31.6 43C33.4753 43 35.1912 42.3206 36.5188 41.2036C37.7163 42.0806 39.194 42.6053 40.8 42.6053C44.7768 42.6053 48 39.4245 48 35.5C48 31.5755 44.7768 28.3947 40.8 28.3947C39.194 28.3947 37.7163 28.9194 36.5188 29.7964C35.1912 28.6794 33.4753 28 31.6 28ZM31.6 29.5789C33.0191 29.5789 34.3184 30.0635 35.3438 30.8711C34.2591 32.1149 33.6 33.73 33.6 35.5C33.6 37.27 34.2591 38.8851 35.3438 40.1289C34.3184 40.9365 33.0191 41.4211 31.6 41.4211C28.2772 41.4211 25.6 38.779 25.6 35.5C25.6 32.221 28.2772 29.5789 31.6 29.5789Z"/>
</mask>
<path d="M36.5188 41.2036L37.1096 40.3968L36.4759 39.9328L35.8749 40.4384L36.5188 41.2036ZM36.5188 29.7964L35.8749 30.5616L36.4759 31.0672L37.1096 30.6032L36.5188 29.7964ZM35.3438 30.8711L36.0974 31.5283L36.7884 30.736L35.9625 30.0855L35.3438 30.8711ZM35.3438 40.1289L35.9625 40.9145L36.7884 40.264L36.0974 39.4717L35.3438 40.1289ZM31.6 27C26.8726 27 23 30.8027 23 35.5H25C25 31.9322 27.9521 29 31.6 29V27ZM23 35.5C23 40.1973 26.8726 44 31.6 44V42C27.9521 42 25 39.0678 25 35.5H23ZM31.6 44C33.7213 44 35.6629 43.2306 37.1626 41.9688L35.8749 40.4384C34.7195 41.4106 33.2293 42 31.6 42V44ZM35.9279 42.0104C37.2892 43.0073 38.9722 43.6053 40.8 43.6053V41.6053C39.4158 41.6053 38.1434 41.1539 37.1096 40.3968L35.9279 42.0104ZM40.8 43.6053C45.3166 43.6053 49 39.9892 49 35.5H47C47 38.8597 44.237 41.6053 40.8 41.6053V43.6053ZM49 35.5C49 31.0108 45.3166 27.3947 40.8 27.3947V29.3947C44.237 29.3947 47 32.1403 47 35.5H49ZM40.8 27.3947C38.9722 27.3947 37.2892 27.9927 35.9279 28.9896L37.1096 30.6032C38.1434 29.8461 39.4158 29.3947 40.8 29.3947V27.3947ZM37.1626 29.0312C35.6629 27.7694 33.7213 27 31.6 27V29C33.2293 29 34.7195 29.5894 35.8749 30.5616L37.1626 29.0312ZM31.6 30.5789C32.7875 30.5789 33.8702 30.9834 34.725 31.6567L35.9625 30.0855C34.7666 29.1435 33.2508 28.5789 31.6 28.5789V30.5789ZM34.5901 30.2139C33.3549 31.6303 32.6 33.4761 32.6 35.5H34.6C34.6 33.984 35.1633 32.5996 36.0974 31.5283L34.5901 30.2139ZM32.6 35.5C32.6 37.5239 33.3549 39.3697 34.5901 40.7861L36.0974 39.4717C35.1633 38.4004 34.6 37.016 34.6 35.5H32.6ZM34.725 39.3433C33.8702 40.0166 32.7875 40.4211 31.6 40.4211V42.4211C33.2508 42.4211 34.7666 41.8565 35.9625 40.9145L34.725 39.3433ZM31.6 40.4211C28.817 40.4211 26.6 38.2143 26.6 35.5H24.6C24.6 39.3438 27.7375 42.4211 31.6 42.4211V40.4211ZM26.6 35.5C26.6 32.7857 28.817 30.5789 31.6 30.5789V28.5789C27.7375 28.5789 24.6 31.6562 24.6 35.5H26.6Z" fill="white" mask="url(#path-4-inside-1_25_28)"/>
<path d="M1.92856 16.2941H44.6428" stroke="white" stroke-width="2"/>
</svg>
