<svg width="36" height="36" viewBox="0 0 36 36" fill="none" xmlns="http://www.w3.org/2000/svg">
<path d="M33.1067 15.6172C33.1067 20.0277 29.6086 23.585 25.3155 23.585C21.0224 23.585 17.5243 20.0277 17.5243 15.6172C17.5243 11.2066 21.0224 7.6493 25.3155 7.6493C29.6086 7.6493 33.1067 11.2066 33.1067 15.6172Z" stroke="#2869FF"/>
<path d="M1.27559 20.4156C1.12086 20.4156 0.972462 20.4751 0.863046 20.581C0.75363 20.6869 0.692154 20.8304 0.692139 20.9802V32.4779C0.692154 32.6277 0.75363 32.7712 0.863046 32.8771C0.972462 32.983 1.12086 33.0425 1.27559 33.0425H4.46864H7.65941C7.81415 33.0425 7.96254 32.983 8.07196 32.8771C8.18137 32.7712 8.24285 32.6277 8.24287 32.4779V31.6444L19.1439 35.2168C19.1582 35.2217 19.1726 35.2261 19.1872 35.23C20.4563 35.5416 21.9201 35.3545 23.0275 34.6346L22.9819 34.6633L34.3137 28.7027C34.3168 28.7027 34.3198 28.7027 34.3228 28.7027L34.6009 28.5505C35.5428 28.035 35.9466 26.9127 35.5262 25.9506C35.1684 25.1316 34.4649 24.756 33.9149 24.6782C33.3649 24.6003 32.9143 24.7532 32.9143 24.7532C32.8942 24.7595 32.8744 24.7669 32.8551 24.7753L26.6376 27.567C26.6459 27.4902 26.6604 27.4147 26.6604 27.3355C26.6604 26.0671 25.5745 25.0377 24.2582 25.0377H19.0778C19.0554 24.9993 19.03 24.9462 19.0094 24.9098C18.9169 24.7478 18.8143 24.5896 18.7063 24.4379C18.4903 24.1343 18.2442 23.8531 17.9724 23.5955C16.8852 22.5648 15.3806 21.9306 13.7242 21.9306H8.24287V20.9846C8.24285 20.8349 8.18137 20.6913 8.07196 20.5854C7.96254 20.4795 7.81415 20.4201 7.65941 20.42H4.46864H1.27559V20.4156ZM1.85905 21.5447H4.46864H7.07596V31.9134H4.46864H1.85905V21.5447ZM8.24287 23.0574H13.7242C15.0738 23.0574 16.2822 23.5693 17.1565 24.3982C17.3751 24.6055 17.5736 24.8341 17.7468 25.0774C17.8335 25.1993 17.912 25.325 17.9861 25.4545C18.0776 25.6146 18.1396 25.7119 18.1889 25.8227L18.3416 26.1623H18.8522H24.2582C24.9572 26.1623 25.4935 26.6773 25.4935 27.3311C25.4935 27.8214 25.1917 28.2356 24.746 28.4116H24.7391C24.5922 28.4692 24.4306 28.502 24.2582 28.502H16.1423V29.6311H24.2582C24.4843 29.6311 24.7019 29.5905 24.9101 29.534C24.9952 29.5302 25.0785 29.5084 25.1539 29.4701L33.2995 25.8183C33.3094 25.8183 33.502 25.758 33.7462 25.7919C33.9967 25.8269 34.2372 25.8912 34.4528 26.385C34.6454 26.8259 34.4695 27.319 34.0243 27.5626L33.7531 27.7126L22.4236 33.6709C22.408 33.6791 22.3927 33.6879 22.378 33.6974C21.6108 34.1961 20.4191 34.3619 19.4858 34.1362L8.24287 30.4536V23.0574Z" fill="#2869FF"/>
<path d="M25.3155 9.82336V21.411" stroke="#2869FF" stroke-linecap="round" stroke-linejoin="round"/>
<path d="M27.6186 11.6061H24.164C23.7364 11.6061 23.3263 11.8174 23.024 12.1935C22.7216 12.5696 22.5518 13.0797 22.5518 13.6116C22.5518 14.1435 22.7216 14.6536 23.024 15.0298C23.3263 15.4059 23.7364 15.6172 24.164 15.6172H26.4671C26.8947 15.6172 27.3047 15.8285 27.6071 16.2046C27.9094 16.5807 28.0793 17.0908 28.0793 17.6227C28.0793 18.1546 27.9094 18.6647 27.6071 19.0409C27.3047 19.417 26.8947 19.6283 26.4671 19.6283H22.5518" stroke="#2869FF" stroke-linecap="round" stroke-linejoin="round"/>
<line x1="19.8581" y1="3.76215" x2="19.8581" y2="8.27835" stroke="#2869FF"/>
<line x1="25.6927" y1="0.375" x2="25.6927" y2="6.02025" stroke="#2869FF"/>
<line x1="31.5272" y1="3.76215" x2="31.5272" y2="8.27835" stroke="#2869FF"/>
</svg>
