<svg width="34" height="34" viewBox="0 0 34 34" fill="none" xmlns="http://www.w3.org/2000/svg">
<circle cx="17" cy="17" r="17" fill="#1549B2"/>
<path d="M22 7H12C9.23858 7 7 9.23858 7 12V22C7 24.7614 9.23858 27 12 27H22C24.7614 27 27 24.7614 27 22V12C27 9.23858 24.7614 7 22 7Z" stroke="white" stroke-width="2" stroke-linecap="round" stroke-linejoin="round"/>
<path d="M21 16.37C21.1234 17.2022 20.9813 18.0522 20.5938 18.799C20.2063 19.5458 19.5931 20.1514 18.8416 20.5297C18.0901 20.9079 17.2384 21.0396 16.4078 20.9059C15.5771 20.7723 14.8098 20.3801 14.2148 19.7852C13.6199 19.1902 13.2277 18.4229 13.0941 17.5922C12.9604 16.7616 13.0921 15.9099 13.4703 15.1584C13.8486 14.4069 14.4542 13.7937 15.201 13.4062C15.9478 13.0187 16.7978 12.8766 17.63 13C18.4789 13.1259 19.2648 13.5215 19.8717 14.1283C20.4785 14.7351 20.8741 15.5211 21 16.37Z" stroke="white" stroke-width="2" stroke-linecap="round" stroke-linejoin="round"/>
<path d="M22.5 11.5H22.51" stroke="white" stroke-width="2" stroke-linecap="round" stroke-linejoin="round"/>
</svg>
