<svg width="35" height="35" viewBox="0 0 35 35" fill="none" xmlns="http://www.w3.org/2000/svg">
<path fill-rule="evenodd" clip-rule="evenodd" d="M6.11515 2.54841C8.69145 1.38067 12.9181 0 17.5437 0C22.0727 0 26.188 1.3233 28.7507 2.47548L28.8956 2.54063C29.6682 2.89455 30.2918 3.22902 30.7307 3.50029L26.8526 8.75073C35.793 17.2156 42.6988 35 17.5437 35C-7.61147 35 -0.891463 17.5384 8.12664 8.75073L4.27373 3.50029C4.57084 3.32042 4.94773 3.11137 5.39706 2.88969C5.61962 2.77884 5.85899 2.66411 6.11515 2.54841ZM24.3603 8.68072L27.4646 4.47746C24.5776 4.66997 21.1425 5.29808 17.8355 6.18482C15.4734 6.81682 12.8488 6.72056 10.4184 6.30539C9.80599 6.20023 9.19775 6.07505 8.59486 5.93008L10.6105 8.67878C14.9306 10.1032 20.0391 10.1032 24.3603 8.68072ZM9.39799 10.3356C14.453 12.1441 20.5284 12.1441 25.5833 10.3336C27.6934 12.3937 29.4585 14.7347 30.8199 17.2788C32.2393 19.9604 33.012 22.6411 32.886 24.9512C32.7642 27.1807 31.8173 29.0855 29.6546 30.5012C27.4006 31.9761 23.6096 33.0554 17.5426 33.0554C11.4693 33.0554 7.66051 31.9946 5.38551 30.5362C3.2071 29.138 2.2507 27.2595 2.11527 25.0601C1.97354 22.7752 2.72942 20.1082 4.14355 17.4081C5.49259 14.8335 7.37495 12.3551 9.39799 10.3356ZM8.19068 3.80754C9.03055 4.03895 9.90821 4.24021 10.7985 4.39287C13.0556 4.7779 15.3191 4.83429 17.2508 4.31605C19.5018 3.7087 21.7914 3.23103 24.1062 2.8858C22.1745 2.34714 19.9153 1.94461 17.5426 1.94461C13.9259 1.94461 10.5528 2.87899 8.19068 3.80754Z" fill="#2869FF"/>
<path d="M17.691 20.7692C18.2639 20.9255 18.7326 21.0817 19.0972 21.238C19.4878 21.3942 19.8915 21.6156 20.3082 21.902C20.7248 22.1624 21.0373 22.501 21.2457 22.9176C21.48 23.3343 21.5972 23.8291 21.5972 24.402C21.5972 25.2093 21.3238 25.8734 20.7769 26.3942C20.2561 26.889 19.5529 27.2145 18.6675 27.3708V29.1676H16.1675V27.3708C15.3082 27.1885 14.592 26.8239 14.0191 26.277C13.4722 25.7301 13.1727 25.027 13.1207 24.1676H14.9566C15.0608 25.3395 15.8811 25.9255 17.4175 25.9255C18.2248 25.9255 18.7977 25.7822 19.1363 25.4958C19.5009 25.1833 19.6832 24.8317 19.6832 24.4411C19.6832 23.5036 18.8498 22.8265 17.1832 22.4098C14.579 21.8109 13.2769 20.665 13.2769 18.9723C13.2769 18.2171 13.5503 17.5791 14.0972 17.0583C14.6441 16.5114 15.3342 16.1468 16.1675 15.9645V14.1676H18.6675V16.0036C19.5269 16.2119 20.1779 16.6025 20.6207 17.1755C21.0894 17.7484 21.3368 18.4124 21.3628 19.1676H19.5269C19.4748 17.9958 18.7717 17.4098 17.4175 17.4098C16.7404 17.4098 16.1936 17.5531 15.7769 17.8395C15.3863 18.126 15.191 18.5036 15.191 18.9723C15.191 19.7275 16.0243 20.3265 17.691 20.7692Z" fill="#2869FF"/>
</svg>
