<svg width="65" height="65" viewBox="0 0 65 65" fill="none" xmlns="http://www.w3.org/2000/svg">
<g clip-path="url(#clip0_25_31)">
<path d="M31.1389 40.8056V40.9678L31.1902 41.1218C31.8831 43.2004 33.7604 44.2922 35.7397 45.0562C36.7488 45.4456 37.8622 45.7781 38.9786 46.1067C39.0522 46.1283 39.1259 46.15 39.1996 46.1717C40.2565 46.4825 41.3209 46.7954 42.3686 47.1652C44.6149 47.958 46.6632 48.9729 48.1561 50.6182C49.4818 52.0791 50.4392 54.1155 50.6112 57.1389H0.666612C0.838608 54.1155 1.79595 52.0791 3.12163 50.6182C4.61458 48.9729 6.66289 47.958 8.90921 47.1652C9.9569 46.7954 11.0212 46.4825 12.0782 46.1717C12.1519 46.15 12.2256 46.1283 12.2992 46.1067C13.4156 45.7781 14.529 45.4456 15.538 45.0562C17.5174 44.2922 19.3947 43.2004 20.0876 41.1218L20.1389 40.9678V40.8056V36.4722V35.8517L19.5829 35.5762C19.5051 35.5377 19.2489 35.3499 18.8561 34.941C18.4906 34.5605 18.0734 34.0587 17.6724 33.4897C16.8484 32.32 16.1944 31.0092 16.0766 29.9642L15.9839 29.142L15.1589 29.0791C15.0493 29.0708 14.8049 29.012 14.5339 28.6861C14.2513 28.3462 13.91 27.6759 13.7478 26.4069L13.7478 26.4068C13.612 25.3455 14.1462 24.8828 14.2817 24.8048L15.0831 24.3436L14.6864 23.5095L14.6864 23.5094L14.6862 23.5091L14.6861 23.5088L14.6859 23.5085L14.6853 23.5071L14.6784 23.4922C14.6718 23.478 14.6614 23.4551 14.6476 23.4242C14.6202 23.3622 14.5795 23.2683 14.53 23.1471C14.4309 22.9042 14.2975 22.5541 14.1639 22.1338C13.8932 21.2817 13.6389 20.1926 13.6389 19.1411C13.6389 15.7556 14.5466 12.7693 16.4394 10.6415C18.3142 8.53397 21.2689 7.14105 25.6389 7.14105C27.8795 7.14105 29.2848 7.86849 30.12 8.54372C30.5445 8.88688 30.8335 9.22642 31.0124 9.47197C31.1017 9.59457 31.1628 9.69285 31.1991 9.75506C31.2172 9.78612 31.229 9.80803 31.2349 9.8193L31.2386 9.82634L31.5062 10.3911H32.1389C33.9506 10.3911 35.2751 11.2792 36.1951 12.8087C37.1409 14.381 37.6389 16.6202 37.6389 19.1411C37.6389 20.3142 37.3818 21.4041 37.1168 22.2116C36.9852 22.6124 36.8542 22.936 36.7577 23.1561C36.7096 23.266 36.6703 23.3495 36.6441 23.4034C36.6311 23.4304 36.6214 23.4499 36.6155 23.4615L36.61 23.4722L36.6098 23.4726L36.6096 23.4729L36.6096 23.473L36.6093 23.4736L36.609 23.4741L36.1614 24.3244L36.9961 24.8048C37.1319 24.8829 37.6657 25.3437 37.53 26.4069C37.3678 27.6759 37.0265 28.3462 36.7439 28.6861C36.4728 29.012 36.2284 29.0708 36.1188 29.0791L35.2939 29.142L35.2012 29.9642C35.0833 31.0092 34.4294 32.32 33.6053 33.4897C33.2044 34.0587 32.7871 34.5605 32.4216 34.941C32.0289 35.3499 31.7727 35.5377 31.6949 35.5762L31.1389 35.8517V36.4722V40.8056Z" stroke="white" stroke-width="2"/>
<path d="M49.4723 57.7778H62.8334C62.8334 46.794 47.7599 48.6085 45.4979 42.4027L46.5834 40.2037C54.8102 40.2037 59.0742 36.1485 59.0742 36.1485C54.47 32.3173 60.6231 7 42.8174 7C39.288 7 35.75 10.8333 35.75 10.8333" stroke="white" stroke-width="2"/>
</g>
<defs>
<clipPath id="clip0_25_31">
<rect width="65" height="65" fill="white"/>
</clipPath>
</defs>
</svg>
