<svg width="15" height="15" viewBox="0 0 12 12" fill="none" xmlns="http://www.w3.org/2000/svg">
<path d="M3.83895 10.8959L3.83896 10.8959C3.92823 11.0199 4.05758 11.1 4.20265 11.1C4.34773 11.1 4.47707 11.0199 4.56634 10.8959L4.56635 10.8959L10.9593 2.01299C10.9594 2.0128 10.9596 2.01261 10.9597 2.01242C11.0284 1.91947 11.0731 1.80323 11.091 1.67982C11.109 1.556 11.0999 1.4273 11.0641 1.30974C11.0283 1.19244 10.9666 1.08804 10.8827 1.0133C10.7982 0.937978 10.6943 0.895826 10.5845 0.900325L10.5886 1.00024L10.5844 0.900327C10.4429 0.906187 10.3183 0.987837 10.2323 1.11041C10.2322 1.11062 10.232 1.11082 10.2319 1.11103L4.20265 9.48851L1.76963 6.10788C1.72593 6.04486 1.67199 5.9921 1.60969 5.95468C1.54685 5.91695 1.4772 5.8959 1.40513 5.89488C1.33304 5.89386 1.2629 5.91295 1.19925 5.94906C1.13587 5.98501 1.08075 6.03674 1.03589 6.09907C0.991026 6.16141 0.956643 6.23399 0.933704 6.31206C0.91075 6.39018 0.899413 6.47322 0.900023 6.55652C0.900633 6.63982 0.913184 6.72259 0.937311 6.80015C0.961317 6.87733 0.996622 6.94881 1.04225 7.00988L3.83895 10.8959Z" fill="#144AB1" stroke="#144AB1" stroke-width="0.2"/>
</svg>
