<svg width="35" height="35" viewBox="0 0 35 35" fill="none" xmlns="http://www.w3.org/2000/svg">
<path d="M23.3333 16.4062C22.3664 16.4062 21.4391 16.752 20.7553 17.3673C20.0716 17.9827 19.6875 18.8173 19.6875 19.6875C19.6875 21.4922 21.3281 22.9687 23.3333 22.9687H30.625V16.4062H23.3333Z" stroke="#2869FF" stroke-width="2" stroke-linecap="round" stroke-linejoin="round"/>
<path d="M5.46875 8.75V26.25C5.46875 26.8302 5.69922 27.3866 6.10945 27.7968C6.51969 28.207 7.07609 28.4375 7.65625 28.4375H29.5312C29.8213 28.4375 30.0995 28.3223 30.3046 28.1171C30.5098 27.912 30.625 27.6338 30.625 27.3438V12.0312C30.625 11.7412 30.5098 11.463 30.3046 11.2579C30.0995 11.0527 29.8213 10.9375 29.5312 10.9375H7.65625C7.07609 10.9375 6.51969 10.707 6.10945 10.2968C5.69922 9.88656 5.46875 9.33016 5.46875 8.75ZM5.46875 8.75C5.46875 8.16984 5.69922 7.61344 6.10945 7.2032C6.51969 6.79297 7.07609 6.5625 7.65625 6.5625H26.25" stroke="#2869FF" stroke-width="2" stroke-linecap="round" stroke-linejoin="round"/>
<path d="M24.6094 21.3281C25.5155 21.3281 26.25 20.5936 26.25 19.6875C26.25 18.7814 25.5155 18.0469 24.6094 18.0469C23.7033 18.0469 22.9688 18.7814 22.9688 19.6875C22.9688 20.5936 23.7033 21.3281 24.6094 21.3281Z" fill="#2869FF"/>
</svg>
