<svg width="34" height="34" viewBox="0 0 34 34" fill="none" xmlns="http://www.w3.org/2000/svg">
<circle cx="17" cy="17" r="17" fill="#1549B2"/>
<path d="M27.54 11.42C27.4212 10.9454 27.1793 10.5106 26.8387 10.1594C26.498 9.80824 26.0708 9.55318 25.6 9.42C23.88 9 17 9 17 9C17 9 10.12 9 8.40001 9.46C7.92925 9.59318 7.50198 9.84824 7.16135 10.1994C6.82072 10.5506 6.5788 10.9854 6.46001 11.46C6.14522 13.2056 5.99124 14.9763 6.00001 16.75C5.98879 18.537 6.14277 20.3213 6.46001 22.08C6.59097 22.5398 6.83831 22.9581 7.17815 23.2945C7.51799 23.6308 7.93883 23.8738 8.40001 24C10.12 24.46 17 24.46 17 24.46C17 24.46 23.88 24.46 25.6 24C26.0708 23.8668 26.498 23.6118 26.8387 23.2606C27.1793 22.9094 27.4212 22.4746 27.54 22C27.8524 20.2676 28.0063 18.5103 28 16.75C28.0112 14.963 27.8572 13.1787 27.54 11.42V11.42Z" fill="white" stroke="white" stroke-width="2" stroke-linecap="round" stroke-linejoin="round"/>
<path d="M14.75 20.02L20.5 16.75L14.75 13.48V20.02Z" fill="#1549B2"/>
</svg>
